<?xml version="1.0" encoding="UTF-8" standalone="no"?>
<svg
   width="1152pt"
   height="1152pt"
   viewBox="0 0 1152 1152"
   version="1.1"
   id="svg12800"
   sodipodi:docname="datasets0.svg"
   inkscape:version="1.2.2 (b0a8486541, 2022-12-01)"
   xmlns:inkscape="http://www.inkscape.org/namespaces/inkscape"
   xmlns:sodipodi="http://sodipodi.sourceforge.net/DTD/sodipodi-0.dtd"
   xmlns:xlink="http://www.w3.org/1999/xlink"
   xmlns="http://www.w3.org/2000/svg"
   xmlns:svg="http://www.w3.org/2000/svg"
   xmlns:rdf="http://www.w3.org/1999/02/22-rdf-syntax-ns#"
   xmlns:cc="http://creativecommons.org/ns#"
   xmlns:dc="http://purl.org/dc/elements/1.1/">
  <sodipodi:namedview
     id="namedview12802"
     pagecolor="#ffffff"
     bordercolor="#000000"
     borderopacity="0.25"
     inkscape:showpageshadow="2"
     inkscape:pageopacity="0.0"
     inkscape:pagecheckerboard="0"
     inkscape:deskcolor="#d1d1d1"
     inkscape:document-units="pt"
     showgrid="false"
     inkscape:zoom="1.2291667"
     inkscape:cx="-43.932203"
     inkscape:cy="553.22034"
     inkscape:window-width="2514"
     inkscape:window-height="1403"
     inkscape:window-x="0"
     inkscape:window-y="0"
     inkscape:window-maximized="1"
     inkscape:current-layer="svg12800" />
  <metadata
     id="metadata2">
    <rdf:RDF>
      <cc:Work>
        <dc:type
           rdf:resource="http://purl.org/dc/dcmitype/StillImage" />
        <dc:date>2023-05-15T17:55:53.280372</dc:date>
        <dc:format>image/svg+xml</dc:format>
        <dc:creator>
          <cc:Agent>
            <dc:title>Matplotlib v3.6.3, https://matplotlib.org/</dc:title>
          </cc:Agent>
        </dc:creator>
      </cc:Work>
    </rdf:RDF>
  </metadata>
  <defs
     id="defs6">
    <style
       type="text/css"
       id="style4">*{stroke-linejoin: round; stroke-linecap: butt}</style>
  </defs>
  <g
     id="patch_1">
    <path
       d="M 0,1152 H 1152 V 0 H 0 Z"
       style="fill:#ffffff"
       id="path8" />
  </g>
  <g
     id="axes_1">
    <g
       id="patch_2">
      <path
         d="m 49.14,124.42 h 84.44 V 23.96 H 49.14 Z"
         style="fill:#e5e5e5"
         id="path11" />
    </g>
    <g
       id="matplotlib.axis_1">
      <g
         id="xtick_1">
        <g
           id="line2d_1">
          <path
             d="M 81.511951,124.42 V 23.96"
             clip-path="url(#pf9f4d592c0)"
             style="fill:none;stroke:#ffffff;stroke-width:0.8;stroke-linecap:square"
             id="path14" />
        </g>
        <g
           id="line2d_2">
          <defs
             id="defs18">
            <path
               id="m38035631a7"
               d="M 0,0 V 3.5"
               style="stroke:#555555;stroke-width:0.8" />
          </defs>
          <g
             id="g22">
            <use
               xlink:href="#m38035631a7"
               x="81.511948"
               y="124.42"
               style="fill:#555555;stroke:#555555;stroke-width:0.8"
               id="use20" />
          </g>
        </g>
        <g
           id="text_1">
          <!-- 0 -->
          <g
             style="fill:#555555"
             transform="matrix(0.1,0,0,-0.1,78.330701,139.01844)"
             id="g30">
            <defs
               id="defs26">
              <path
                 id="DejaVuSans-30"
                 d="m 2034,4250 q -487,0 -733,-480 -245,-479 -245,-1442 0,-959 245,-1439 246,-480 733,-480 491,0 736,480 246,480 246,1439 0,963 -246,1442 -245,480 -736,480 z m 0,500 q 785,0 1199,-621 414,-620 414,-1801 0,-1178 -414,-1799 -414,-620 -1199,-620 -784,0 -1198,620 -414,621 -414,1799 0,1181 414,1801 414,621 1198,621 z"
                 transform="scale(0.015625)" />
            </defs>
            <use
               xlink:href="#DejaVuSans-30"
               id="use28" />
          </g>
        </g>
      </g>
      <g
         id="xtick_2">
        <g
           id="line2d_3">
          <path
             d="M 132.44503,124.42 V 23.96"
             clip-path="url(#pf9f4d592c0)"
             style="fill:none;stroke:#ffffff;stroke-width:0.8;stroke-linecap:square"
             id="path34" />
        </g>
        <g
           id="line2d_4">
          <g
             id="g39">
            <use
               xlink:href="#m38035631a7"
               x="132.44504"
               y="124.42"
               style="fill:#555555;stroke:#555555;stroke-width:0.8"
               id="use37" />
          </g>
        </g>
        <g
           id="text_2">
          <!-- 20 -->
          <g
             style="fill:#555555"
             transform="matrix(0.1,0,0,-0.1,126.08253,139.01844)"
             id="g49">
            <defs
               id="defs43">
              <path
                 id="DejaVuSans-32"
                 d="M 1228,531 H 3431 V 0 H 469 v 531 q 359,372 979,998 621,627 780,809 303,340 423,576 121,236 121,464 0,372 -261,606 -261,235 -680,235 -297,0 -627,-103 -329,-103 -704,-313 v 638 q 381,153 712,231 332,78 607,78 725,0 1156,-363 431,-362 431,-968 0,-288 -108,-546 -107,-257 -392,-607 -78,-91 -497,-524 Q 1991,1309 1228,531 Z"
                 transform="scale(0.015625)" />
            </defs>
            <use
               xlink:href="#DejaVuSans-32"
               id="use45" />
            <use
               xlink:href="#DejaVuSans-30"
               x="63.623047"
               id="use47" />
          </g>
        </g>
      </g>
    </g>
    <g
       id="matplotlib.axis_2">
      <g
         id="ytick_1">
        <g
           id="line2d_5">
          <path
             d="m 49.14,124.42 h 84.44"
             clip-path="url(#pf9f4d592c0)"
             style="fill:none;stroke:#ffffff;stroke-width:0.8;stroke-linecap:square"
             id="path54" />
        </g>
        <g
           id="line2d_6">
          <defs
             id="defs58">
            <path
               id="m60b8064b0f"
               d="M 0,0 H -3.5"
               style="stroke:#555555;stroke-width:0.8" />
          </defs>
          <g
             id="g62">
            <use
               xlink:href="#m60b8064b0f"
               x="49.139999"
               y="124.42"
               style="fill:#555555;stroke:#555555;stroke-width:0.8"
               id="use60" />
          </g>
        </g>
        <g
           id="text_3">
          <!-- 0 -->
          <g
             style="fill:#555555"
             transform="matrix(0.1,0,0,-0.1,35.7775,128.21922)"
             id="g67">
            <use
               xlink:href="#DejaVuSans-30"
               id="use65" />
          </g>
        </g>
      </g>
      <g
         id="ytick_2">
        <g
           id="line2d_7">
          <path
             d="m 49.14,99.242055 h 84.44"
             clip-path="url(#pf9f4d592c0)"
             style="fill:none;stroke:#ffffff;stroke-width:0.8;stroke-linecap:square"
             id="path71" />
        </g>
        <g
           id="line2d_8">
          <g
             id="g76">
            <use
               xlink:href="#m60b8064b0f"
               x="49.139999"
               y="99.242058"
               style="fill:#555555;stroke:#555555;stroke-width:0.8"
               id="use74" />
          </g>
        </g>
        <g
           id="text_4">
          <!-- 5 -->
          <g
             style="fill:#555555"
             transform="matrix(0.1,0,0,-0.1,35.7775,103.04127)"
             id="g84">
            <defs
               id="defs80">
              <path
                 id="DejaVuSans-35"
                 d="M 691,4666 H 3169 V 4134 H 1269 V 2991 q 137,47 274,70 138,23 276,23 781,0 1237,-428 457,-428 457,-1159 Q 3513,744 3044,326 2575,-91 1722,-91 1428,-91 1123,-41 819,9 494,109 v 635 q 281,-153 581,-228 300,-75 634,-75 541,0 856,284 316,284 316,772 0,487 -316,771 -315,285 -856,285 -253,0 -505,-56 -251,-56 -513,-175 z"
                 transform="scale(0.015625)" />
            </defs>
            <use
               xlink:href="#DejaVuSans-35"
               id="use82" />
          </g>
        </g>
      </g>
      <g
         id="ytick_3">
        <g
           id="line2d_9">
          <path
             d="m 49.14,74.06411 h 84.44"
             clip-path="url(#pf9f4d592c0)"
             style="fill:none;stroke:#ffffff;stroke-width:0.8;stroke-linecap:square"
             id="path88" />
        </g>
        <g
           id="line2d_10">
          <g
             id="g93">
            <use
               xlink:href="#m60b8064b0f"
               x="49.139999"
               y="74.06411"
               style="fill:#555555;stroke:#555555;stroke-width:0.8"
               id="use91" />
          </g>
        </g>
        <g
           id="text_5">
          <!-- 10 -->
          <g
             style="fill:#555555"
             transform="matrix(0.1,0,0,-0.1,29.415,77.863329)"
             id="g103">
            <defs
               id="defs97">
              <path
                 id="DejaVuSans-31"
                 d="M 794,531 H 1825 V 4091 L 703,3866 v 575 l 1116,225 h 631 V 531 H 3481 V 0 H 794 Z"
                 transform="scale(0.015625)" />
            </defs>
            <use
               xlink:href="#DejaVuSans-31"
               id="use99" />
            <use
               xlink:href="#DejaVuSans-30"
               x="63.623047"
               id="use101" />
          </g>
        </g>
      </g>
      <g
         id="ytick_4">
        <g
           id="line2d_11">
          <path
             d="m 49.14,48.886165 h 84.44"
             clip-path="url(#pf9f4d592c0)"
             style="fill:none;stroke:#ffffff;stroke-width:0.8;stroke-linecap:square"
             id="path107" />
        </g>
        <g
           id="line2d_12">
          <g
             id="g112">
            <use
               xlink:href="#m60b8064b0f"
               x="49.139999"
               y="48.886166"
               style="fill:#555555;stroke:#555555;stroke-width:0.8"
               id="use110" />
          </g>
        </g>
        <g
           id="text_6">
          <!-- 15 -->
          <g
             style="fill:#555555"
             transform="matrix(0.1,0,0,-0.1,29.415,52.685384)"
             id="g119">
            <use
               xlink:href="#DejaVuSans-31"
               id="use115" />
            <use
               xlink:href="#DejaVuSans-35"
               x="63.623047"
               id="use117" />
          </g>
        </g>
      </g>
    </g>
    <g
       id="patch_3">
      <path
         d="m 52.978182,124.42 h 3.838182 v -5.03559 h -3.838182 z"
         clip-path="url(#pf9f4d592c0)"
         style="opacity:0.7;fill:#e24a33"
         id="path124" />
    </g>
    <g
       id="patch_4">
      <path
         d="m 56.816364,124.42 h 3.838181 v 0 z"
         clip-path="url(#pf9f4d592c0)"
         style="opacity:0.7;fill:#e24a33"
         id="path127" />
    </g>
    <g
       id="patch_5">
      <path
         d="m 60.654545,124.42 h 3.838182 v 0 z"
         clip-path="url(#pf9f4d592c0)"
         style="opacity:0.7;fill:#e24a33"
         id="path130" />
    </g>
    <g
       id="patch_6">
      <path
         d="m 64.492727,124.42 h 3.838182 v -15.10677 h -3.838182 z"
         clip-path="url(#pf9f4d592c0)"
         style="opacity:0.7;fill:#e24a33"
         id="path133" />
    </g>
    <g
       id="patch_7">
      <path
         d="m 68.330909,124.42 h 3.838182 v 0 z"
         clip-path="url(#pf9f4d592c0)"
         style="opacity:0.7;fill:#e24a33"
         id="path136" />
    </g>
    <g
       id="patch_8">
      <path
         d="m 72.169091,124.42 h 3.838182 v -5.03559 h -3.838182 z"
         clip-path="url(#pf9f4d592c0)"
         style="opacity:0.7;fill:#e24a33"
         id="path139" />
    </g>
    <g
       id="patch_9">
      <path
         d="m 76.007273,124.42 h 3.838182 v -20.14236 h -3.838182 z"
         clip-path="url(#pf9f4d592c0)"
         style="opacity:0.7;fill:#e24a33"
         id="path142" />
    </g>
    <g
       id="patch_10">
      <path
         d="m 79.845455,124.42 h 3.838181 V 74.06411 h -3.838181 z"
         clip-path="url(#pf9f4d592c0)"
         style="opacity:0.7;fill:#e24a33"
         id="path145" />
    </g>
    <g
       id="patch_11">
      <path
         d="m 83.683636,124.42 h 3.838182 V 94.206466 h -3.838182 z"
         clip-path="url(#pf9f4d592c0)"
         style="opacity:0.7;fill:#e24a33"
         id="path148" />
    </g>
    <g
       id="patch_12">
      <path
         d="M 87.521818,124.42 H 91.36 V 69.028521 h -3.838182 z"
         clip-path="url(#pf9f4d592c0)"
         style="opacity:0.7;fill:#e24a33"
         id="path151" />
    </g>
    <g
       id="patch_13">
      <path
         d="m 91.36,124.42 h 3.838182 V 43.850576 H 91.36 Z"
         clip-path="url(#pf9f4d592c0)"
         style="opacity:0.7;fill:#e24a33"
         id="path154" />
    </g>
    <g
       id="patch_14">
      <path
         d="m 95.198182,124.42 h 3.838182 V 28.74381 h -3.838182 z"
         clip-path="url(#pf9f4d592c0)"
         style="opacity:0.7;fill:#e24a33"
         id="path157" />
    </g>
    <g
       id="patch_15">
      <path
         d="m 99.036364,124.42 h 3.838176 V 74.06411 h -3.838176 z"
         clip-path="url(#pf9f4d592c0)"
         style="opacity:0.7;fill:#e24a33"
         id="path160" />
    </g>
    <g
       id="patch_16">
      <path
         d="m 102.87454,124.42 h 3.83819 V 84.135288 h -3.83819 z"
         clip-path="url(#pf9f4d592c0)"
         style="opacity:0.7;fill:#e24a33"
         id="path163" />
    </g>
    <g
       id="patch_17">
      <path
         d="m 106.71273,124.42 h 3.83818 v -10.07118 h -3.83818 z"
         clip-path="url(#pf9f4d592c0)"
         style="opacity:0.7;fill:#e24a33"
         id="path166" />
    </g>
    <g
       id="patch_18">
      <path
         d="m 110.55091,124.42 h 3.83818 v -10.07118 h -3.83818 z"
         clip-path="url(#pf9f4d592c0)"
         style="opacity:0.7;fill:#e24a33"
         id="path169" />
    </g>
    <g
       id="patch_19">
      <path
         d="m 114.38909,124.42 h 3.83818 v -10.07118 h -3.83818 z"
         clip-path="url(#pf9f4d592c0)"
         style="opacity:0.7;fill:#e24a33"
         id="path172" />
    </g>
    <g
       id="patch_20">
      <path
         d="m 118.22727,124.42 h 3.83819 v -5.03559 h -3.83819 z"
         clip-path="url(#pf9f4d592c0)"
         style="opacity:0.7;fill:#e24a33"
         id="path175" />
    </g>
    <g
       id="patch_21">
      <path
         d="m 122.06546,124.42 h 3.83818 v -15.10677 h -3.83818 z"
         clip-path="url(#pf9f4d592c0)"
         style="opacity:0.7;fill:#e24a33"
         id="path178" />
    </g>
    <g
       id="patch_22">
      <path
         d="m 125.90364,124.42 h 3.83818 v -5.03559 h -3.83818 z"
         clip-path="url(#pf9f4d592c0)"
         style="opacity:0.7;fill:#e24a33"
         id="path181" />
    </g>
    <g
       id="patch_23">
      <path
         d="M 49.14,124.42 V 23.96"
         style="fill:none;stroke:#ffffff;stroke-linecap:square;stroke-linejoin:miter"
         id="path184" />
    </g>
    <g
       id="patch_24">
      <path
         d="M 133.58,124.42 V 23.96"
         style="fill:none;stroke:#ffffff;stroke-linecap:square;stroke-linejoin:miter"
         id="path187" />
    </g>
    <g
       id="patch_25">
      <path
         d="m 49.14,124.42 h 84.44"
         style="fill:none;stroke:#ffffff;stroke-linecap:square;stroke-linejoin:miter"
         id="path190" />
    </g>
    <g
       id="patch_26">
      <path
         d="m 49.14,23.96 h 84.44"
         style="fill:none;stroke:#ffffff;stroke-linecap:square;stroke-linejoin:miter"
         id="path193" />
    </g>
    <g
       id="text_7">
      <!-- Dataset 1 -->
      <g
         transform="matrix(0.144,0,0,-0.144,56.296,17.96)"
         id="g222">
        <defs
           id="defs202">
          <path
             id="DejaVuSans-44"
             d="M 1259,4147 V 519 h 763 q 966,0 1414,437 448,438 448,1382 0,937 -448,1373 -448,436 -1414,436 z m -631,519 h 1297 q 1356,0 1990,-564 635,-564 635,-1764 Q 4550,1131 3912,565 3275,0 1925,0 H 628 Z"
             transform="scale(0.015625)" />
          <path
             id="DejaVuSans-61"
             d="m 2194,1759 q -697,0 -966,-159 -269,-159 -269,-544 0,-306 202,-486 202,-179 548,-179 479,0 768,339 289,339 289,901 v 128 z m 1147,238 V 0 H 2766 V 531 Q 2569,213 2275,61 1981,-91 1556,-91 q -537,0 -855,302 -317,302 -317,808 0,590 395,890 396,300 1180,300 h 807 v 57 q 0,397 -261,614 -261,217 -733,217 -300,0 -585,-72 -284,-72 -546,-216 v 532 q 315,122 612,182 297,61 578,61 760,0 1135,-394 375,-393 375,-1193 z"
             transform="scale(0.015625)" />
          <path
             id="DejaVuSans-74"
             d="M 1172,4494 V 3500 H 2356 V 3053 H 1172 V 1153 q 0,-428 117,-550 117,-122 477,-122 h 590 V 0 H 1766 Q 1100,0 847,248 594,497 594,1153 V 3053 H 172 v 447 h 422 v 994 z"
             transform="scale(0.015625)" />
          <path
             id="DejaVuSans-73"
             d="m 2834,3397 v -544 q -243,125 -506,187 -262,63 -544,63 -428,0 -642,-131 -214,-131 -214,-394 0,-200 153,-314 153,-114 616,-217 l 197,-44 q 612,-131 870,-370 258,-239 258,-667 0,-488 -386,-773 Q 2250,-91 1575,-91 1294,-91 989,-36 684,19 347,128 v 594 q 319,-166 628,-249 309,-82 613,-82 406,0 624,139 219,139 219,392 0,234 -158,359 -157,125 -692,241 l -200,47 q -534,112 -772,345 -237,233 -237,639 0,494 350,762 350,269 994,269 318,0 599,-47 282,-46 519,-140 z"
             transform="scale(0.015625)" />
          <path
             id="DejaVuSans-65"
             d="M 3597,1894 V 1613 H 953 q 38,-594 358,-905 320,-311 892,-311 331,0 642,81 311,81 618,244 V 178 Q 3153,47 2828,-22 2503,-91 2169,-91 1331,-91 842,396 353,884 353,1716 q 0,859 464,1363 464,505 1252,505 706,0 1117,-455 411,-454 411,-1235 z m -575,169 q -6,471 -264,752 -258,282 -683,282 -481,0 -770,-272 -289,-272 -333,-766 z"
             transform="scale(0.015625)" />
          <path
             id="DejaVuSans-20"
             transform="scale(0.015625)"
             d="" />
        </defs>
        <use
           xlink:href="#DejaVuSans-44"
           id="use204" />
        <use
           xlink:href="#DejaVuSans-61"
           x="77.001953"
           id="use206" />
        <use
           xlink:href="#DejaVuSans-74"
           x="138.28125"
           id="use208" />
        <use
           xlink:href="#DejaVuSans-61"
           x="177.49023"
           id="use210" />
        <use
           xlink:href="#DejaVuSans-73"
           x="238.76953"
           id="use212" />
        <use
           xlink:href="#DejaVuSans-65"
           x="290.86914"
           id="use214" />
        <use
           xlink:href="#DejaVuSans-74"
           x="352.39258"
           id="use216" />
        <use
           xlink:href="#DejaVuSans-20"
           x="391.60156"
           id="use218" />
        <use
           xlink:href="#DejaVuSans-31"
           x="423.38867"
           id="use220" />
      </g>
    </g>
  </g>
  <defs
     id="defs12798">
    <clipPath
       id="pf9f4d592c0">
      <rect
         x="49.14"
         y="23.96"
         width="84.44"
         height="100.46"
         id="rect12606" />
    </clipPath>
    <clipPath
       id="pa9b13c0d7c">
      <rect
         x="190.64"
         y="23.96"
         width="84.44"
         height="100.46"
         id="rect12609" />
    </clipPath>
    <clipPath
       id="pd1c86d23c8">
      <rect
         x="332.14"
         y="23.96"
         width="84.44"
         height="100.46"
         id="rect12612" />
    </clipPath>
    <clipPath
       id="p5ed0961dbb">
      <rect
         x="473.64"
         y="23.96"
         width="84.44"
         height="100.46"
         id="rect12615" />
    </clipPath>
    <clipPath
       id="pa6695f3072">
      <rect
         x="615.14"
         y="23.96"
         width="84.44"
         height="100.46"
         id="rect12618" />
    </clipPath>
    <clipPath
       id="pc19e8a24ca">
      <rect
         x="756.64"
         y="23.96"
         width="84.44"
         height="100.46"
         id="rect12621" />
    </clipPath>
    <clipPath
       id="p8ecd32fc79">
      <rect
         x="898.14"
         y="23.96"
         width="84.44"
         height="100.46"
         id="rect12624" />
    </clipPath>
    <clipPath
       id="pfd51fc0505">
      <rect
         x="1039.64"
         y="23.96"
         width="84.44"
         height="100.46"
         id="rect12627" />
    </clipPath>
    <clipPath
       id="pdfe282e5fa">
      <rect
         x="49.14"
         y="165.46"
         width="84.44"
         height="100.46"
         id="rect12630" />
    </clipPath>
    <clipPath
       id="pfa66133900">
      <rect
         x="190.64"
         y="165.46"
         width="84.44"
         height="100.46"
         id="rect12633" />
    </clipPath>
    <clipPath
       id="p540d4e4d56">
      <rect
         x="332.14"
         y="165.46"
         width="84.44"
         height="100.46"
         id="rect12636" />
    </clipPath>
    <clipPath
       id="pfa5b349146">
      <rect
         x="473.64"
         y="165.46"
         width="84.44"
         height="100.46"
         id="rect12639" />
    </clipPath>
    <clipPath
       id="p99dcd48de9">
      <rect
         x="615.14"
         y="165.46"
         width="84.44"
         height="100.46"
         id="rect12642" />
    </clipPath>
    <clipPath
       id="p0db497fec5">
      <rect
         x="756.64"
         y="165.46"
         width="84.44"
         height="100.46"
         id="rect12645" />
    </clipPath>
    <clipPath
       id="pe5ae9289da">
      <rect
         x="898.14"
         y="165.46"
         width="84.44"
         height="100.46"
         id="rect12648" />
    </clipPath>
    <clipPath
       id="pb11536993a">
      <rect
         x="1039.64"
         y="165.46"
         width="84.44"
         height="100.46"
         id="rect12651" />
    </clipPath>
    <clipPath
       id="pc71e11b015">
      <rect
         x="49.14"
         y="306.96"
         width="84.44"
         height="100.46"
         id="rect12654" />
    </clipPath>
    <clipPath
       id="p2add604075">
      <rect
         x="190.64"
         y="306.96"
         width="84.44"
         height="100.46"
         id="rect12657" />
    </clipPath>
    <clipPath
       id="p3feb18df45">
      <rect
         x="332.14"
         y="306.96"
         width="84.44"
         height="100.46"
         id="rect12660" />
    </clipPath>
    <clipPath
       id="p9d046d6b23">
      <rect
         x="473.64"
         y="306.96"
         width="84.44"
         height="100.46"
         id="rect12663" />
    </clipPath>
    <clipPath
       id="p2ecc009122">
      <rect
         x="615.14"
         y="306.96"
         width="84.44"
         height="100.46"
         id="rect12666" />
    </clipPath>
    <clipPath
       id="p1a4f8a2b7c">
      <rect
         x="756.64"
         y="306.96"
         width="84.44"
         height="100.46"
         id="rect12669" />
    </clipPath>
    <clipPath
       id="p5831d6f2e3">
      <rect
         x="898.14"
         y="306.96"
         width="84.44"
         height="100.46"
         id="rect12672" />
    </clipPath>
    <clipPath
       id="p3c62cb466c">
      <rect
         x="1039.64"
         y="306.96"
         width="84.44"
         height="100.46"
         id="rect12675" />
    </clipPath>
    <clipPath
       id="pd553c09357">
      <rect
         x="49.14"
         y="448.46"
         width="84.44"
         height="100.46"
         id="rect12678" />
    </clipPath>
    <clipPath
       id="p87ba535401">
      <rect
         x="190.64"
         y="448.46"
         width="84.44"
         height="100.46"
         id="rect12681" />
    </clipPath>
    <clipPath
       id="pe52a7fae72">
      <rect
         x="332.14"
         y="448.46"
         width="84.44"
         height="100.46"
         id="rect12684" />
    </clipPath>
    <clipPath
       id="p256d7f4ebb">
      <rect
         x="473.64"
         y="448.46"
         width="84.44"
         height="100.46"
         id="rect12687" />
    </clipPath>
    <clipPath
       id="pe358d4588c">
      <rect
         x="615.14"
         y="448.46"
         width="84.44"
         height="100.46"
         id="rect12690" />
    </clipPath>
    <clipPath
       id="p430e15ed7e">
      <rect
         x="756.64"
         y="448.46"
         width="84.44"
         height="100.46"
         id="rect12693" />
    </clipPath>
    <clipPath
       id="p511882f499">
      <rect
         x="898.14"
         y="448.46"
         width="84.44"
         height="100.46"
         id="rect12696" />
    </clipPath>
    <clipPath
       id="p1836c602ea">
      <rect
         x="1039.64"
         y="448.46"
         width="84.44"
         height="100.46"
         id="rect12699" />
    </clipPath>
    <clipPath
       id="pb2ecc42801">
      <rect
         x="49.14"
         y="589.96"
         width="84.44"
         height="100.46"
         id="rect12702" />
    </clipPath>
    <clipPath
       id="pace160b8dc">
      <rect
         x="190.64"
         y="589.96"
         width="84.44"
         height="100.46"
         id="rect12705" />
    </clipPath>
    <clipPath
       id="p3e9f26067c">
      <rect
         x="332.14"
         y="589.96"
         width="84.44"
         height="100.46"
         id="rect12708" />
    </clipPath>
    <clipPath
       id="p77a52480ef">
      <rect
         x="473.64"
         y="589.96"
         width="84.44"
         height="100.46"
         id="rect12711" />
    </clipPath>
    <clipPath
       id="p132be75088">
      <rect
         x="615.14"
         y="589.96"
         width="84.44"
         height="100.46"
         id="rect12714" />
    </clipPath>
    <clipPath
       id="p00294d88f3">
      <rect
         x="756.64"
         y="589.96"
         width="84.44"
         height="100.46"
         id="rect12717" />
    </clipPath>
    <clipPath
       id="p9017e4726b">
      <rect
         x="898.14"
         y="589.96"
         width="84.44"
         height="100.46"
         id="rect12720" />
    </clipPath>
    <clipPath
       id="p11588ef728">
      <rect
         x="1039.64"
         y="589.96"
         width="84.44"
         height="100.46"
         id="rect12723" />
    </clipPath>
    <clipPath
       id="pcca53b52c1">
      <rect
         x="49.14"
         y="731.46"
         width="84.44"
         height="100.46"
         id="rect12726" />
    </clipPath>
    <clipPath
       id="p8bf0a43cc2">
      <rect
         x="190.64"
         y="731.46"
         width="84.44"
         height="100.46"
         id="rect12729" />
    </clipPath>
    <clipPath
       id="p0323d2f1f1">
      <rect
         x="332.14"
         y="731.46"
         width="84.44"
         height="100.46"
         id="rect12732" />
    </clipPath>
    <clipPath
       id="p039d992502">
      <rect
         x="473.64"
         y="731.46"
         width="84.44"
         height="100.46"
         id="rect12735" />
    </clipPath>
    <clipPath
       id="pf92b3f8c95">
      <rect
         x="615.14"
         y="731.46"
         width="84.44"
         height="100.46"
         id="rect12738" />
    </clipPath>
    <clipPath
       id="p23c6ebbb2f">
      <rect
         x="756.64"
         y="731.46"
         width="84.44"
         height="100.46"
         id="rect12741" />
    </clipPath>
    <clipPath
       id="p25d0d57dc6">
      <rect
         x="898.14"
         y="731.46"
         width="84.44"
         height="100.46"
         id="rect12744" />
    </clipPath>
    <clipPath
       id="pa18b12ddf4">
      <rect
         x="1039.64"
         y="731.46"
         width="84.44"
         height="100.46"
         id="rect12747" />
    </clipPath>
    <clipPath
       id="pe283aca288">
      <rect
         x="49.14"
         y="872.96"
         width="84.44"
         height="100.46"
         id="rect12750" />
    </clipPath>
    <clipPath
       id="p8ba68b8cb4">
      <rect
         x="190.64"
         y="872.96"
         width="84.44"
         height="100.46"
         id="rect12753" />
    </clipPath>
    <clipPath
       id="p9d637375be">
      <rect
         x="332.14"
         y="872.96"
         width="84.44"
         height="100.46"
         id="rect12756" />
    </clipPath>
    <clipPath
       id="p395f473588">
      <rect
         x="473.64"
         y="872.96"
         width="84.44"
         height="100.46"
         id="rect12759" />
    </clipPath>
    <clipPath
       id="p514433cde7">
      <rect
         x="615.14"
         y="872.96"
         width="84.44"
         height="100.46"
         id="rect12762" />
    </clipPath>
    <clipPath
       id="p676d690bc2">
      <rect
         x="756.64"
         y="872.96"
         width="84.44"
         height="100.46"
         id="rect12765" />
    </clipPath>
    <clipPath
       id="pd54282eab1">
      <rect
         x="898.14"
         y="872.96"
         width="84.44"
         height="100.46"
         id="rect12768" />
    </clipPath>
    <clipPath
       id="p1e7290692e">
      <rect
         x="1039.64"
         y="872.96"
         width="84.44"
         height="100.46"
         id="rect12771" />
    </clipPath>
    <clipPath
       id="pcb19d82ced">
      <rect
         x="49.14"
         y="1014.46"
         width="84.44"
         height="100.46"
         id="rect12774" />
    </clipPath>
    <clipPath
       id="p7774b10d59">
      <rect
         x="190.64"
         y="1014.46"
         width="84.44"
         height="100.46"
         id="rect12777" />
    </clipPath>
    <clipPath
       id="p90216b0a26">
      <rect
         x="332.14"
         y="1014.46"
         width="84.44"
         height="100.46"
         id="rect12780" />
    </clipPath>
    <clipPath
       id="p455962dad9">
      <rect
         x="473.64"
         y="1014.46"
         width="84.44"
         height="100.46"
         id="rect12783" />
    </clipPath>
    <clipPath
       id="p75654bdd3b">
      <rect
         x="615.14"
         y="1014.46"
         width="84.44"
         height="100.46"
         id="rect12786" />
    </clipPath>
    <clipPath
       id="p1a3f6278c2">
      <rect
         x="756.64"
         y="1014.46"
         width="84.44"
         height="100.46"
         id="rect12789" />
    </clipPath>
    <clipPath
       id="p3499c4bf4d">
      <rect
         x="898.14"
         y="1014.46"
         width="84.44"
         height="100.46"
         id="rect12792" />
    </clipPath>
    <clipPath
       id="p1151a25c4e">
      <rect
         x="1039.64"
         y="1014.46"
         width="84.44"
         height="100.46"
         id="rect12795" />
    </clipPath>
  </defs>
</svg>
