<?xml version="1.0" encoding="UTF-8" standalone="no"?>
<svg
   version="1.1"
   id="svg2"
   xml:space="preserve"
   width="932.02222"
   height="516.50781"
   viewBox="0 0 932.02222 516.50781"
   sodipodi:docname="front.svg"
   inkscape:version="1.2.2 (b0a8486541, 2022-12-01)"
   xmlns:inkscape="http://www.inkscape.org/namespaces/inkscape"
   xmlns:sodipodi="http://sodipodi.sourceforge.net/DTD/sodipodi-0.dtd"
   xmlns="http://www.w3.org/2000/svg"
   xmlns:svg="http://www.w3.org/2000/svg"
   xmlns:rdf="http://www.w3.org/1999/02/22-rdf-syntax-ns#"
   xmlns:cc="http://creativecommons.org/ns#"
   xmlns:dc="http://purl.org/dc/elements/1.1/"><metadata
     id="metadata8"><rdf:RDF><cc:Work
         rdf:about=""><dc:format>image/svg+xml</dc:format><dc:type
           rdf:resource="http://purl.org/dc/dcmitype/StillImage" /></cc:Work></rdf:RDF></metadata><defs
     id="defs6"><clipPath
   clipPathUnits="userSpaceOnUse"
   id="clipPath18"><path
     d="M 0,0.028 H 719.971 V 539.999 H 0 Z"
     id="path16"
     inkscape:connector-curvature="0"
     style="clip-rule:evenodd" /></clipPath><clipPath
   clipPathUnits="userSpaceOnUse"
   id="clipPath30"><path
     d="M 0,0.056 H 719.971 V 539.999 H 0 Z"
     id="path28"
     inkscape:connector-curvature="0"
     style="clip-rule:evenodd" /></clipPath><clipPath
   clipPathUnits="userSpaceOnUse"
   id="clipPath62"><path
     d="M 0,0.028 H 719.971 V 539.999 H 0 Z"
     id="path60"
     inkscape:connector-curvature="0"
     style="clip-rule:evenodd" /></clipPath><clipPath
   id="clipPath936"
   clipPathUnits="userSpaceOnUse"><path
     style="clip-rule:evenodd"
     inkscape:connector-curvature="0"
     id="path934"
     d="M 0,0.028 H 719.971 V 539.999 H 0 Z" /></clipPath><clipPath
   id="clipPath948"
   clipPathUnits="userSpaceOnUse"><path
     style="clip-rule:evenodd"
     inkscape:connector-curvature="0"
     id="path946"
     d="M 0,0.056 H 719.971 V 539.999 H 0 Z" /></clipPath><clipPath
   id="clipPath980"
   clipPathUnits="userSpaceOnUse"><path
     style="clip-rule:evenodd"
     inkscape:connector-curvature="0"
     id="path978"
     d="M 0,0.028 H 719.971 V 539.999 H 0 Z" /></clipPath><clipPath
   clipPathUnits="userSpaceOnUse"
   id="clipPath1097"><rect
     style="fill:#e9e9e9;fill-opacity:1;stroke:none;stroke-width:2.04258;stroke-miterlimit:4;stroke-dasharray:none;stroke-opacity:1"
     id="rect1099"
     width="298.51294"
     height="40.448906"
     x="40.381569"
     y="-403.68008" /></clipPath><clipPath
   id="clip1"><path
     id="path1101"
     d="M 0.910156,0 H 338.41797 V 49.222656 H 0.910156 Z m 0,0"
     inkscape:connector-curvature="0" /></clipPath><clipPath
   clipPathUnits="userSpaceOnUse"
   id="clipPath1317"><rect
     style="fill:#e9e9e9;fill-opacity:1;stroke:none;stroke-width:2.84882;stroke-miterlimit:4;stroke-dasharray:none;stroke-opacity:1"
     id="rect1319"
     width="234.53389"
     height="38.326275"
     x="24.365492"
     y="5.7361679" /></clipPath><clipPath
   id="clip1-7"><path
     id="path1101-5"
     d="M 0.910156,0 H 338.41797 V 49.222656 H 0.910156 Z m 0,0"
     inkscape:connector-curvature="0" /></clipPath><clipPath
   clipPathUnits="userSpaceOnUse"
   id="clipPath3018"><path
     d="M 0,56.958 H 147.026 V 0 H 0 Z"
     id="path3020" /></clipPath>




<style
   id="style4567">.cls-1{fill:#ff506e;}.cls-2{fill:#fff;}</style></defs><sodipodi:namedview
     pagecolor="#ffffff"
     bordercolor="#666666"
     borderopacity="1"
     objecttolerance="10"
     gridtolerance="10"
     guidetolerance="10"
     inkscape:pageopacity="0"
     inkscape:pageshadow="2"
     inkscape:window-width="2514"
     inkscape:window-height="1403"
     id="namedview4"
     showgrid="false"
     showguides="true"
     inkscape:guide-bbox="true"
     inkscape:zoom="5.6568542"
     inkscape:cx="679.97156"
     inkscape:cy="449.36636"
     inkscape:window-x="0"
     inkscape:window-y="0"
     inkscape:window-maximized="1"
     inkscape:current-layer="g1421"
     inkscape:document-rotation="0"
     inkscape:pagecheckerboard="0"
     inkscape:showpageshadow="2"
     inkscape:deskcolor="#d1d1d1" /><g
     id="g10"
     inkscape:groupmode="layer"
     inkscape:label="Formatvorlage_englisch"
     transform="matrix(1.3333333,0,0,-1.3333333,-54.536137,521.63163)">



<rect
   style="fill:#880e4f;fill-opacity:1;stroke:none;stroke-width:2.93522;stroke-miterlimit:4;stroke-dasharray:none;stroke-opacity:1"
   id="rect918"
   width="674.51862"
   height="138.65906"
   x="40.902103"
   y="-302.87357"
   transform="scale(1,-1)" /><g
   id="g37498"
   transform="translate(-3.1855453,1.3277512)"><g
     aria-label="Efficient accurate and robust statistical inference for deterministic and stochastic models of biochemical systems"
     transform="scale(1,-1)"
     id="text979"
     style="font-size:27.0658px;font-family:Carlito;-inkscape-font-specification:Carlito;fill:#ffffff;stroke-width:0.874638" /></g>




<g
   id="g16763"
   transform="matrix(1.2456756,0,0,1.2456756,-20.058902,-81.169696)"><g
     id="g3016"
     clip-path="url(#clipPath3018)"
     transform="matrix(0.61546365,0,0,0.61546365,250.7129,344.04729)"><g
       id="g3022"
       transform="translate(116.942,41.2349)"><path
         d="M 0,0 C 4.722,5.559 7.378,10.12 9.502,15.723 H -26.884 V -15.712 C -19.686,-14.741 -9.592,-11.294 0,0"
         style="fill:#0a55a1;fill-opacity:1;fill-rule:nonzero;stroke:none"
         id="path3024" /></g><path
       d="m 90.063,0 h 56.963 V 16.012 H 90.063 Z"
       style="fill:#fbbb00;fill-opacity:1;fill-rule:nonzero;stroke:none"
       id="path3026" /><g
       id="g3028"
       transform="translate(147.0211,56.958)"><path
         d="m 0,0 h -18.197 c -2.179,-5.927 -5.489,-11.923 -10.518,-17.844 -9.903,-11.658 -20.868,-15.169 -28.248,-16.142 v -4.423 H 0 Z"
         style="fill:#949387;fill-opacity:1;fill-rule:nonzero;stroke:none"
         id="path3030" /></g><g
       id="g3032"
       transform="translate(96.6032,4.2818)"><path
         d="m 0,0 c 1.386,0 1.818,0.283 1.818,1.52 0,1.371 -0.462,1.728 -1.878,1.744 H -1.952 V 0.015 Z M -1.952,7.51 V 4.619 h 1.863 c 1.251,0 1.669,0.298 1.669,1.476 0,1.147 -0.447,1.415 -1.818,1.415 z M 1.609,3.919 c 1.55,-0.134 2.072,-1.103 2.072,-2.742 0,-2.116 -0.969,-2.682 -3.368,-2.682 -1.877,0 -2.861,0.015 -4.098,0.119 V 8.896 c 1.102,0.104 1.997,0.12 3.636,0.12 2.593,0 3.517,-0.567 3.517,-2.683 0,-1.476 -0.507,-2.235 -1.759,-2.354 z"
         style="fill:#ffffff;fill-opacity:1;fill-rule:nonzero;stroke:none"
         id="path3034" /></g><g
       id="g3036"
       transform="translate(103.7838,8.0367)"><path
         d="m 0,0 c 0,-2.861 0.536,-3.74 2.265,-3.74 1.743,0 2.28,0.879 2.28,3.74 0,2.861 -0.537,3.74 -2.28,3.74 C 0.536,3.74 0,2.861 0,0 m 6.512,0 c 0,-4.083 -1.103,-5.335 -4.247,-5.335 -3.129,0 -4.232,1.252 -4.232,5.335 0,4.083 1.103,5.335 4.232,5.335 3.144,0 4.247,-1.252 4.247,-5.335"
         style="fill:#ffffff;fill-opacity:1;fill-rule:nonzero;stroke:none"
         id="path3038" /></g><g
       id="g3040"
       transform="translate(120.5895,3.5816)"><path
         d="m 0,0 c 0,-0.447 -0.238,-0.686 -0.686,-0.686 h -1.475 c -0.402,0 -0.61,0.179 -0.775,0.566 l -2.89,6.304 c -0.195,0.417 -0.507,1.057 -0.611,1.535 h -0.179 c 0.074,-0.522 0.09,-1.043 0.09,-1.55 v -6.855 h -1.833 v 9.597 c 0,0.446 0.253,0.685 0.7,0.685 h 1.445 c 0.402,0 0.596,-0.179 0.776,-0.566 l 2.8,-6.125 c 0.195,-0.447 0.492,-1.072 0.716,-1.624 h 0.179 C -1.788,1.848 -1.817,2.398 -1.817,2.95 V 9.596 H 0 Z"
         style="fill:#ffffff;fill-opacity:1;fill-rule:nonzero;stroke:none"
         id="path3042" /></g><g
       id="g3044"
       transform="translate(131.2418,3.5816)"><path
         d="m 0,0 c 0,-0.447 -0.239,-0.686 -0.686,-0.686 h -1.475 c -0.402,0 -0.611,0.179 -0.775,0.566 l -2.891,6.304 c -0.193,0.417 -0.506,1.057 -0.61,1.535 h -0.179 c 0.074,-0.522 0.089,-1.043 0.089,-1.55 V -0.686 H -8.36 v 9.597 c 0,0.446 0.254,0.685 0.7,0.685 h 1.446 c 0.402,0 0.596,-0.179 0.775,-0.566 l 2.801,-6.125 c 0.194,-0.447 0.492,-1.072 0.715,-1.624 h 0.179 C -1.789,1.848 -1.818,2.398 -1.818,2.95 V 9.596 H 0 Z"
         style="fill:#ffffff;fill-opacity:1;fill-rule:nonzero;stroke:none"
         id="path3046" /></g><g
       id="g3048"
       transform="translate(7.5734,6.8618)"><path
         d="m 0,0 c 0,-3.011 -0.999,-4.159 -3.727,-4.159 -2.817,0 -3.846,1.148 -3.846,4.159 v 6.321 h 1.491 V 0 c 0,-2.116 0.582,-2.832 2.295,-2.832 1.685,0 2.296,0.716 2.296,2.832 V 6.321 H 0 Z"
         style="fill:#949387;fill-opacity:1;fill-rule:nonzero;stroke:none"
         id="path3050" /></g><g
       id="g3052"
       transform="translate(18.0587,3.4781)"><path
         d="m 0,0 c 0,-0.388 -0.194,-0.581 -0.552,-0.581 h -1.416 c -0.328,0 -0.507,0.148 -0.641,0.461 l -3.205,7.008 c -0.179,0.386 -0.492,0.998 -0.611,1.43 H -6.634 C -6.574,7.842 -6.56,7.35 -6.56,6.888 v -7.469 h -1.49 v 9.704 c 0,0.388 0.208,0.582 0.567,0.582 h 1.371 c 0.328,0 0.506,-0.149 0.655,-0.462 L -2.34,2.415 c 0.193,-0.418 0.491,-1.014 0.715,-1.536 h 0.224 c -0.045,0.537 -0.075,1.058 -0.075,1.596 v 7.23 H 0 Z"
         style="fill:#949387;fill-opacity:1;fill-rule:nonzero;stroke:none"
         id="path3054" /></g><path
       d="M 20.569,13.183 H 22.06 V 2.897 h -1.491 z"
       style="fill:#949387;fill-opacity:1;fill-rule:nonzero;stroke:none"
       id="path3056" /><g
       id="g3058"
       transform="translate(29.1725,3.314)"><path
         d="m 0,0 c -0.074,-0.238 -0.298,-0.417 -0.566,-0.417 h -1.461 c -0.269,0 -0.492,0.179 -0.567,0.417 L -5.635,9.869 H -4.1 L -1.774,1.863 C -1.669,1.491 -1.58,1.103 -1.49,0.73 h 0.402 c 0.075,0.373 0.179,0.761 0.283,1.133 l 2.311,8.006 h 1.536 z"
         style="fill:#949387;fill-opacity:1;fill-rule:nonzero;stroke:none"
         id="path3060" /></g><g
       id="g3062"
       transform="translate(40.091,2.9859)"><path
         d="m 0,0 c -1.357,-0.119 -2.937,-0.119 -4.413,-0.119 -1.282,0 -2.058,0.716 -2.072,1.848 v 6.649 c 0.014,1.133 0.804,1.849 2.072,1.849 1.476,0 3.056,0 4.413,-0.12 L -0.075,8.944 H -4.16 c -0.596,0 -0.819,-0.253 -0.819,-0.953 V 5.934 h 4.337 V 4.726 H -4.979 V 2.103 c 0,-0.702 0.223,-0.955 0.819,-0.955 h 4.085 z"
         style="fill:#949387;fill-opacity:1;fill-rule:nonzero;stroke:none"
         id="path3064" /></g><g
       id="g3066"
       transform="translate(45.6413,8.4126)"><path
         d="M 0,0 C 1.446,0.015 1.923,0.417 1.923,1.833 1.923,3.25 1.446,3.622 0,3.622 c -0.806,0 -1.521,0 -2.087,-0.015 V 0 Z M 2.206,-5.516 1.327,-2.311 C 1.088,-1.565 0.686,-1.282 0.03,-1.282 l -2.117,0.014 V -5.516 H -3.563 V 4.771 c 1.133,0.119 1.908,0.133 3.593,0.133 2.415,0 3.398,-0.671 3.398,-2.981 0,-1.625 -0.522,-2.445 -1.892,-2.624 v -0.074 c 0.506,-0.15 1.072,-0.597 1.297,-1.491 l 0.968,-3.25 z"
         style="fill:#949387;fill-opacity:1;fill-rule:nonzero;stroke:none"
         id="path3068" /></g><g
       id="g3070"
       transform="translate(57.3488,13.0484)"><path
         d="m 0,0 -0.09,-1.088 c -0.864,0.029 -1.983,0.074 -2.951,0.074 -1.402,0 -1.938,-0.059 -1.938,-1.43 0,-1.059 0.373,-1.342 1.237,-1.566 L -1.7,-4.576 c 1.596,-0.433 2.087,-1.387 2.087,-2.922 0,-2.37 -1.029,-2.833 -3.503,-2.833 -0.656,0 -1.804,0.03 -3.235,0.299 l 0.104,1.102 c 1.864,-0.059 2.386,-0.074 3.161,-0.074 1.505,0.015 1.953,0.238 1.953,1.521 0,1.118 -0.388,1.356 -1.222,1.58 l -2.088,0.581 c -1.505,0.418 -2.042,1.356 -2.042,2.923 0,2.384 1.059,2.712 3.383,2.712 C -2.132,0.313 -1.044,0.254 0,0"
         style="fill:#949387;fill-opacity:1;fill-rule:nonzero;stroke:none"
         id="path3072" /></g><path
       d="m 59.723,13.183 h 1.491 V 2.897 h -1.491 z"
       style="fill:#949387;fill-opacity:1;fill-rule:nonzero;stroke:none"
       id="path3074" /><g
       id="g3076"
       transform="translate(67.5666,11.856)"><path
         d="M 0,0 V -8.959 H -1.505 V 0 H -4.741 V 1.327 H 3.265 V 0 Z"
         style="fill:#949387;fill-opacity:1;fill-rule:nonzero;stroke:none"
         id="path3078" /></g><g
       id="g3080"
       transform="translate(76.068,14.3003)"><path
         d="m 0,0 c -0.268,0 -0.388,0.12 -0.388,0.402 v 0.806 c 0,0.238 0.12,0.402 0.388,0.402 H 0.478 C 0.731,1.61 0.88,1.446 0.88,1.208 V 0.402 C 0.88,0.12 0.731,0 0.478,0 Z m -0.641,-3.101 c -0.074,0.269 -0.178,0.568 -0.238,0.835 H -1.281 C -1.371,-2.533 -1.46,-2.832 -1.535,-3.101 L -2.728,-7.006 H 0.566 Z M -2.638,0 c -0.269,0 -0.388,0.12 -0.388,0.402 v 0.806 c 0,0.238 0.119,0.402 0.388,0.402 h 0.477 c 0.268,0 0.388,-0.164 0.388,-0.402 V 0.402 C -1.773,0.12 -1.893,0 -2.161,0 Z m -0.492,-8.303 -0.954,-3.1 H -5.62 l 3.235,9.883 c 0.06,0.253 0.283,0.403 0.537,0.403 h 1.521 c 0.267,0 0.476,-0.15 0.552,-0.403 l 3.234,-9.883 H 1.924 l -0.954,3.1 z"
         style="fill:#949387;fill-opacity:1;fill-rule:nonzero;stroke:none"
         id="path3082" /></g><g
       id="g3084"
       transform="translate(83.8835,11.856)"><path
         d="M 0,0 V -8.959 H -1.505 V 0 H -4.739 V 1.327 H 3.266 V 0 Z"
         style="fill:#949387;fill-opacity:1;fill-rule:nonzero;stroke:none"
         id="path3086" /></g></g><path
     id="path1231"
     d="m 548.76832,379.22668 v -28.69767 h 7.40587 v 28.69767 h 34.25207 v -35.1778 h -6.48012 v 28.69769 h -7.40585 v -28.69769 h -6.48013 v 28.69769 h -7.40586 v -28.69769 h -20.36609 v 28.69769 h -6.48012 v -28.69769 h -6.48014 v 28.69769 h -6.48011 v 6.48011 z"
     inkscape:connector-curvature="0"
     style="fill:#3070b3;stroke-width:0.925732" /><g
     id="Logo_White_Red"
     data-name="Logo White Red"
     transform="matrix(0.14089626,0,0,-0.14089626,380.08073,379.10281)"><path
       id="Munich"
       class="cls-1"
       d="M 162.8,221.54 V 150 h 19.32 v 74 a 16.1,16.1 0 0 1 -4.84,11.24 l -9.85,10 A 15.87,15.87 0 0 1 156.17,250 h -19 a 15.87,15.87 0 0 1 -11.26,-4.68 l -9.86,-10 a 16,16 0 0 1 -4.69,-11.24 V 150 h 19.14 v 71.51 a 3.42,3.42 0 0 0 0.85,2.25 l 6.2,6.07 a 2.83,2.83 0 0 0 2.26,1 h 13.68 a 2.83,2.83 0 0 0 2.26,-1 l 6.2,-6.07 a 3.42,3.42 0 0 0 0.85,-2.22 z M 276.46,150 v 100 h -17.35 a 3,3 0 0 1 -2.68,-1.56 L 222.72,189 v 61 H 203.54 V 150 h 17.2 a 3.21,3.21 0 0 1 2.83,1.69 l 33.71,59.38 V 150 Z m 41.42,100 H 298.7 V 150 h 19.18 z m 170.2,-100 h -20.55 l 16.26,40.42 h -34.7 v 19.11 h 34.7 L 467.53,250 h 20.55 l 19,-50 z m -94,71.37 -2.39,2.39 v 0 l -6.07,6.07 a 3.33,3.33 0 0 1 -2.4,1 H 366 a 3,3 0 0 1 -2.26,-1 l -6.07,-6.07 a 3,3 0 0 1 -1,-2.26 v -42.84 a 2.82,2.82 0 0 1 1,-2.26 l 6.07,-6.21 a 3.66,3.66 0 0 1 2.26,-1 h 17.2 a 4,4 0 0 1 2.4,1 l 8.46,8.46 13.52,-13.52 c -0.13,-0.14 -0.25,-0.3 -0.4,-0.44 l -10,-9.87 A 16.36,16.36 0 0 0 385.92,150 H 363.5 a 16.09,16.09 0 0 0 -11.43,4.79 l -9.87,9.87 A 16,16 0 0 0 337.54,176 v 48.1 a 16,16 0 0 0 4.66,11.29 l 9.87,10 A 15.75,15.75 0 0 0 363.5,250 h 22.42 a 16,16 0 0 0 11.29,-4.66 l 10,-10 c 0.15,-0.14 0.27,-0.3 0.4,-0.44 z M 439.34,250 H 420.16 V 150 h 19.18 z M 71.72,150 45,196.24 18.35,150 H 0 V 250 H 19.18 V 188.18 L 36.39,218 a 3.2,3.2 0 0 0 2.77,1.6 H 50.91 A 3.19,3.19 0 0 0 53.68,218 L 70.76,188.43 V 250 H 89.94 V 150 Z" /><path
       id="Helmholtz"
       class="cls-2"
       d="M 53.45,0 H 72.64 V 100 H 53.45 V 59.67 H 19.18 V 100 H 0 V 0 h 19.18 v 40.47 h 34.27 z m 50.13,0 a 3.25,3.25 0 0 0 -2.26,1 l -6.2,6.2 a 2.81,2.81 0 0 0 -1,2.25 v 81.1 a 2.82,2.82 0 0 0 1,2.26 l 6.2,6.2 a 2.82,2.82 0 0 0 2.26,1 h 53.6 V 80.82 H 113.31 V 59.67 H 151.4 V 40.47 H 113.31 V 19.18 h 43.87 V 0 Z m 82.47,100 h 44.6 V 80.82 H 195.78 V 0 H 176.6 v 90.55 a 2.76,2.76 0 0 0 1,2.26 l 6.2,6.2 a 2.82,2.82 0 0 0 2.26,1 z M 374,40.47 V 0 H 354.82 V 100 H 374 V 59.67 h 34.27 V 100 h 19.19 V 0 h -19.19 v 40.47 z m 127.61,31 a 3.61,3.61 0 0 1 -1,2.26 l -6.06,6.06 a 3.33,3.33 0 0 1 -2.4,1 H 475 a 3,3 0 0 1 -2.26,-1 l -6.06,-6.06 a 3,3 0 0 1 -1,-2.26 V 28.63 a 2.82,2.82 0 0 1 1,-2.26 l 6.06,-6.2 a 3.61,3.61 0 0 1 2.26,-1 h 17.21 a 4,4 0 0 1 2.4,1 l 6.06,6.2 a 3.3,3.3 0 0 1 1,2.26 z M 506.12,4.75 A 16.4,16.4 0 0 0 494.84,0 H 472.42 A 16.13,16.13 0 0 0 461,4.79 l -9.88,9.88 A 16,16 0 0 0 446.46,26 v 48 a 16,16 0 0 0 4.65,11.29 l 9.88,10 a 15.76,15.76 0 0 0 11.43,4.71 h 22.42 a 16,16 0 0 0 11.28,-4.65 l 10,-10 A 16,16 0 0 0 520.79,74 V 26 a 16,16 0 0 0 -4.65,-11.28 l -10,-9.88 z m 42.7,95.25 h 45.4 V 80.82 H 558.55 V 0 h -19.18 v 90.55 a 2.78,2.78 0 0 0 1,2.26 l 6.21,6.2 a 2.82,2.82 0 0 0 2.26,1 z m 67,-80.82 V 100 H 635 V 19.18 h 26.51 V 0 H 589.32 V 19.18 Z M 730.19,1 a 3.3,3.3 0 0 0 -2.27,-1 h -56 v 19.18 h 39.64 L 670.1,84.77 v 5.78 a 3.33,3.33 0 0 0 1,2.26 l 6.21,6.2 a 2.82,2.82 0 0 0 2.26,1 h 57.26 V 80.82 h -41.49 l 42,-66.44 V 9.44 a 3.34,3.34 0 0 0 -1,-2.25 z M 314.31,0 287.63,46.21 260.94,0 h -18.35 v 100 h 19.18 V 38.15 L 279,68 a 3.2,3.2 0 0 0 2.77,1.6 H 293.5 A 3.19,3.19 0 0 0 296.27,68 L 313.35,38.43 V 100 h 19.18 V 0 Z"
       style="fill:#69005f;fill-opacity:1" /></g></g><text
   xml:space="preserve"
   style="font-size:28px;font-family:sans-serif;-inkscape-font-specification:sans-serif;text-align:start;text-anchor:start;fill:#1a237e;fill-opacity:1;stroke:#5c2874;stroke-width:1.98425;stroke-linecap:round;stroke-linejoin:round"
   x="95.645515"
   y="-246.70673"
   id="text14391"
   transform="scale(1,-1)"><tspan
     sodipodi:role="line"
     style="font-size:28px;text-align:start;text-anchor:start;fill:#ffffff;fill-opacity:1;stroke:none;stroke-width:1.98425"
     x="95.645515"
     y="-246.70673"
     id="tspan569">Accelerating mechanistic inference via</tspan><tspan
     sodipodi:role="line"
     style="font-size:28px;text-align:start;text-anchor:start;fill:#ffffff;fill-opacity:1;stroke:none;stroke-width:1.98425"
     x="95.645515"
     y="-211.70673"
     id="tspan5688">neural density estimation</tspan></text><rect
   style="opacity:1;fill:#880e4f;fill-opacity:0.1;stroke:none;stroke-width:2.24681;stroke-miterlimit:4;stroke-dasharray:none;stroke-opacity:1"
   id="rect15271"
   width="674.51862"
   height="81.245972"
   x="65.400154"
   y="-153.67336"
   transform="scale(1,-1)" /><text
   xml:space="preserve"
   style="font-size:16px;font-family:sans-serif;-inkscape-font-specification:sans-serif;text-align:start;text-anchor:start;opacity:1;fill:#880e4f;fill-opacity:1;stroke:none;stroke-width:1.98425;stroke-linecap:round;stroke-linejoin:round"
   x="91.262695"
   y="-128.5495"
   id="text17545"
   transform="scale(1,-1)"><tspan
     sodipodi:role="line"
     id="tspan17543"
     style="font-weight:bold;font-size:16px;fill:#880e4f;fill-opacity:1;stroke-width:1.98425"
     x="91.262695"
     y="-128.5495">Yannik Schaelte</tspan><tspan
     sodipodi:role="line"
     style="font-size:16px;fill:#880e4f;fill-opacity:1;stroke-width:1.98425"
     x="91.262695"
     y="-108.5495"
     id="tspan27881">AstraZeneca, Computational Pathology, 2023-05-16</tspan><tspan
     sodipodi:role="line"
     style="font-size:16px;fill:#880e4f;fill-opacity:1;stroke-width:1.98425"
     x="91.262695"
     y="-88.5495"
     id="tspan426">Journal Club</tspan></text><g
   id="g1411"
   transform="translate(6)" /><g
   id="g5454"
   transform="translate(-7.9292477)"><g
     id="g1416"
     transform="translate(3.8295166)"><path
       d="m 391.15918,21.472587 c 0.0166,-0.23168 0.0166,-0.46341 0.0166,-0.69508 0,-7.06641 -5.37841,-15.2085702 -15.20858,-15.2085702 -3.02848,0 -5.8418,0.87714 -8.20832,2.39959 0.43029,-0.0496 0.84397,-0.0662 1.29082,-0.0662 2.49887,0 4.79921,0.84397 6.63617,2.2837402 -2.34997,0.0497 -4.31932,1.58872 -4.99784,3.70702 0.33101,-0.0496 0.66197,-0.0827 1.00953,-0.0827 0.47991,0 0.95986,0.0662 1.40666,0.182 -2.44925,0.49651 -4.28624,2.64787 -4.28624,5.24607 v 0.0662 c 0.71158,-0.39718 1.5391,-0.64541 2.41613,-0.67848 -1.43977,0.95987 -2.38303,2.5982 -2.38303,4.4517 0,0.99293 0.26474,1.90312 0.72814,2.69748 2.63131,-3.2436 6.58655,-5.36185 11.02164,-5.59357 -0.0828,0.39718 -0.13238,0.81087 -0.13238,1.2246 0,2.94576 2.38307,5.34534 5.34534,5.34534 1.53906,0 2.92916,-0.64541 3.90558,-1.688 1.20804,0.23167 2.36646,0.67853 3.39255,1.29082 -0.39723,-1.2412 -1.24121,-2.28379 -2.34996,-2.94571 1.07569,0.11579 2.11829,0.41373 3.0781,0.82742 -0.72803,-1.0591 -1.63829,-2.00235 -2.68088,-2.76365 z"
       id="path431"
       style="fill:#1da1f2;fill-opacity:1;stroke-width:0.0509402" /><text
       xml:space="preserve"
       style="font-size:18px;font-family:'Noto Sans';-inkscape-font-specification:'Noto Sans';opacity:0.8;fill:#000000;fill-opacity:1;stroke:none;stroke-width:5.6693;stroke-linecap:round;stroke-linejoin:round;stroke-opacity:0.501961;stop-color:#000000"
       x="398.7005"
       y="-11.480335"
       id="text501"
       transform="scale(1,-1)"><tspan
         sodipodi:role="line"
         id="tspan499"
         style="font-size:18px;fill:#000000;fill-opacity:1;stroke:none;stroke-width:5.66929"
         x="398.7005"
         y="-11.480335">@yannik_schaelte</tspan></text></g><path
     d="m 210.00939,27.570907 h -19.56608 c -0.89654,0 -1.62499,-0.73863 -1.62499,-1.64537 V 6.3951268 c 0,-0.90674 0.72845,-1.64537 1.62499,-1.64537 h 19.56608 c 0.89655,0 1.63008,0.73863 1.63008,1.64537 V 25.925537 c 0,0.90674 -0.73353,1.64537 -1.63008,1.64537 z M 195.7156,8.0099168 h -3.38241 V 18.900907 h 3.38751 V 8.0099168 Z m -1.6912,12.3784402 c -1.08502,0 -1.9612,0.88126 -1.9612,1.9612 0,1.07992 0.87618,1.96119 1.9612,1.96119 1.07992,0 1.9612,-0.88127 1.9612,-1.96119 0,-1.08503 -0.87618,-1.9612 -1.9612,-1.9612 z M 208.39459,8.0099168 h -3.38242 v 5.2977702 c 0,1.26331 -0.0255,2.88831 -1.75743,2.88831 -1.76253,0 -2.03251,-1.37539 -2.03251,-2.79661 V 8.0099168 h -3.38242 V 18.900907 h 3.24488 v -1.48745 h 0.0458 c 0.45337,0.85579 1.55878,1.75743 3.20414,1.75743 3.42317,0 4.05992,-2.25664 4.05992,-5.19079 z"
     id="path440"
     style="fill:#0077b5;fill-opacity:1;stroke-width:0.0509402"
     transform="translate(6.0000002)" /><text
     xml:space="preserve"
     style="font-size:18px;font-family:'Noto Sans';-inkscape-font-specification:'Noto Sans';opacity:0.8;fill:#000000;fill-opacity:1;stroke:none;stroke-width:5.6693;stroke-linecap:round;stroke-linejoin:round;stroke-opacity:0.501961;stop-color:#000000"
     x="219.4158"
     y="-11.480335"
     id="text1352"
     transform="matrix(1,0,0,-1,6.0000002,0)"><tspan
       sodipodi:role="line"
       id="tspan1350"
       style="font-size:18px;stroke-width:5.66929"
       x="219.4158"
       y="-11.480335">yannik-schaelte</tspan></text><g
     id="g1421"><path
       d="m 575.53156,8.6417768 c 0,-0.10188 -0.11716,-0.18339 -0.26488,-0.18339 -0.16811,-0.0153 -0.28527,0.0662 -0.28527,0.18339 0,0.10188 0.11716,0.18338 0.2649,0.18338 0.15281,0.0154 0.28525,-0.0662 0.28525,-0.18338 z m -1.58423,0.22923 c -0.0357,-0.10188 0.0662,-0.21905 0.21905,-0.24961 0.13244,-0.0509 0.28526,0 0.31582,0.10188 0.0306,0.10188 -0.0662,0.21905 -0.21904,0.26488 -0.13245,0.0356 -0.28017,-0.0153 -0.31583,-0.11715 z m 2.25155,0.0866 c -0.14772,-0.0356 -0.2496,-0.13245 -0.23433,-0.24961 0.0153,-0.10188 0.14773,-0.1681 0.30056,-0.13244 0.14772,0.0356 0.2496,0.13244 0.23431,0.23432 -0.0153,0.0968 -0.15282,0.163 -0.30054,0.14773 z m 3.35186,19.5202302 c -7.0654,0 -12.47013,-5.36399 -12.47013,-12.42937 0,-5.64926 3.55561,-10.4834802 8.63434,-12.1848702 0.65203,-0.11716 0.88126,0.28526 0.88126,0.61638 0,0.31582 -0.0153,2.05797 -0.0153,3.12772 0,0 -3.56581,-0.7641 -4.31463,1.51801 0,0 -0.58071,1.4823502 -1.41612,1.8644002 0,0 -1.16653,0.79976 0.0815,0.78448 0,0 1.26842,-0.10187 1.96629,-1.31426 1.11558,-1.9662702 2.98509,-1.4008502 3.71353,-1.0646402 0.11717,0.8150402 0.44827,1.3804802 0.81503,1.7166802 -2.84753,0.31583 -5.72055,0.72845 -5.72055,5.62888 0,1.40086 0.38714,2.10383 1.20218,3.00037 -0.13245,0.33111 -0.56544,1.6963 0.13244,3.45883 1.06464,0.3311 3.51486,-1.37538 3.51486,-1.37538 1.01881,0.28526 2.11402,0.43299 3.19905,0.43299 1.08501,0 2.18023,-0.14773 3.19903,-0.43299 0,0 2.45021,1.71158 3.51486,1.37538 0.69788,-1.76763 0.26489,-3.12772 0.13245,-3.45883 0.81504,-0.90164 1.31425,-1.60461 1.31425,-3.00037 0,-4.91572 -3.00037,-5.30796 -5.84792,-5.62888 0.46866,-0.40243 0.86598,-1.1665302 0.86598,-2.3636202 0,-1.71668 -0.0153,-3.84088 -0.0153,-4.25858 0,-0.33112 0.23433,-0.73355 0.88127,-0.61638 5.094,1.6912 8.54774,6.5254202 8.54774,12.1746802 0,7.06538 -5.73077,12.42937 -12.79614,12.42937 z m -7.51876,-17.56923 c -0.0662,-0.0509 -0.0509,-0.1681 0.0356,-0.26489 0.0815,-0.0815 0.19867,-0.11716 0.2649,-0.0509 0.0662,0.0509 0.0509,0.1681 -0.0356,0.26489 -0.0815,0.0815 -0.19867,0.11717 -0.26489,0.0509 z m -0.55015,0.41262 c -0.0357,-0.0662 0.0153,-0.14774 0.11715,-0.19867 0.0815,-0.0509 0.18339,-0.0356 0.21905,0.0356 0.0356,0.0662 -0.0154,0.14772 -0.11716,0.19867 -0.10189,0.0305 -0.18338,0.0153 -0.21904,-0.0356 z m 1.65046,-1.8134802 c -0.0815,-0.0662 -0.0509,-0.21903 0.0662,-0.31582 0.11716,-0.11717 0.26489,-0.13245 0.33111,-0.0509 0.0662,0.0662 0.0357,0.21904 -0.0662,0.31583 -0.11207,0.11716 -0.2649,0.13244 -0.33111,0.0509 z m -0.58072,0.7488302 c -0.0815,-0.0509 -0.0815,-0.18338 0,-0.3005502 0.0815,-0.11716 0.21904,-0.1681 0.28526,-0.11716 0.0815,0.0662 0.0815,0.1986602 0,0.3158302 -0.0713,0.11716 -0.20375,0.1681 -0.28526,0.10188 z"
       id="path422"
       style="fill:#606060;fill-opacity:1;stroke-width:0.0509402" /><text
       xml:space="preserve"
       style="font-size:18px;font-family:'Noto Sans';-inkscape-font-specification:'Noto Sans';opacity:0.8;fill:#000000;fill-opacity:1;stroke:none;stroke-width:5.6693;stroke-linecap:round;stroke-linejoin:round;stroke-opacity:0.501961;stop-color:#000000"
       x="598.55597"
       y="-11.480335"
       id="text1356"
       transform="scale(1,-1)"><tspan
         sodipodi:role="line"
         id="tspan1354"
         style="font-size:18px;stroke-width:5.66929"
         x="598.55597"
         y="-11.480335">yannikschaelte</tspan></text></g></g></g></svg>
