<?xml version="1.0" encoding="UTF-8" standalone="no"?>
<!-- Created with Inkscape (http://www.inkscape.org/) -->

<svg
   width="186.45421mm"
   height="8.6906729mm"
   viewBox="0 0 186.45421 8.6906729"
   version="1.1"
   id="svg358"
   inkscape:version="1.2.2 (b0a8486541, 2022-12-01)"
   sodipodi:docname="socials.svg"
   xmlns:inkscape="http://www.inkscape.org/namespaces/inkscape"
   xmlns:sodipodi="http://sodipodi.sourceforge.net/DTD/sodipodi-0.dtd"
   xmlns="http://www.w3.org/2000/svg"
   xmlns:svg="http://www.w3.org/2000/svg">
  <sodipodi:namedview
     id="namedview360"
     pagecolor="#ffffff"
     bordercolor="#000000"
     borderopacity="0.25"
     inkscape:showpageshadow="2"
     inkscape:pageopacity="0.0"
     inkscape:pagecheckerboard="0"
     inkscape:deskcolor="#d1d1d1"
     inkscape:document-units="mm"
     showgrid="false"
     inkscape:zoom="1.1893044"
     inkscape:cx="299.33464"
     inkscape:cy="-14.29407"
     inkscape:window-width="2514"
     inkscape:window-height="1403"
     inkscape:window-x="0"
     inkscape:window-y="0"
     inkscape:window-maximized="1"
     inkscape:current-layer="layer1" />
  <defs
     id="defs355" />
  <g
     inkscape:label="Layer 1"
     inkscape:groupmode="layer"
     id="layer1"
     transform="translate(-155.95086,-376.97237)">
    <g
       id="g1416"
       transform="matrix(0.35277777,0,0,-0.35277777,88.574254,387.01881)">
      <path
         d="m 391.15918,21.472587 c 0.0166,-0.23168 0.0166,-0.46341 0.0166,-0.69508 0,-7.06641 -5.37841,-15.2085702 -15.20858,-15.2085702 -3.02848,0 -5.8418,0.87714 -8.20832,2.39959 0.43029,-0.0496 0.84397,-0.0662 1.29082,-0.0662 2.49887,0 4.79921,0.84397 6.63617,2.2837402 -2.34997,0.0497 -4.31932,1.58872 -4.99784,3.70702 0.33101,-0.0496 0.66197,-0.0827 1.00953,-0.0827 0.47991,0 0.95986,0.0662 1.40666,0.182 -2.44925,0.49651 -4.28624,2.64787 -4.28624,5.24607 v 0.0662 c 0.71158,-0.39718 1.5391,-0.64541 2.41613,-0.67848 -1.43977,0.95987 -2.38303,2.5982 -2.38303,4.4517 0,0.99293 0.26474,1.90312 0.72814,2.69748 2.63131,-3.2436 6.58655,-5.36185 11.02164,-5.59357 -0.0828,0.39718 -0.13238,0.81087 -0.13238,1.2246 0,2.94576 2.38307,5.34534 5.34534,5.34534 1.53906,0 2.92916,-0.64541 3.90558,-1.688 1.20804,0.23167 2.36646,0.67853 3.39255,1.29082 -0.39723,-1.2412 -1.24121,-2.28379 -2.34996,-2.94571 1.07569,0.11579 2.11829,0.41373 3.0781,0.82742 -0.72803,-1.0591 -1.63829,-2.00235 -2.68088,-2.76365 z"
         id="path431"
         style="fill:#1da1f2;fill-opacity:1;stroke-width:0.0509402" />
      <text
         xml:space="preserve"
         style="font-size:18px;font-family:'Noto Sans';-inkscape-font-specification:'Noto Sans';opacity:0.8;fill:#000000;fill-opacity:1;stroke:none;stroke-width:5.6693;stroke-linecap:round;stroke-linejoin:round;stroke-opacity:0.501961;stop-color:#000000"
         x="398.7005"
         y="-11.480335"
         id="text501"
         transform="scale(1,-1)"><tspan
           sodipodi:role="line"
           id="tspan499"
           style="font-size:18px;fill:#000000;fill-opacity:1;stroke:none;stroke-width:5.66929"
           x="398.7005"
           y="-11.480335">@yannik_schaelte</tspan></text>
    </g>
    <path
       d="m 163.4266,377.29241 h -6.90248 c -0.31628,0 -0.57326,0.26057 -0.57326,0.58045 v 6.88989 c 0,0.31988 0.25698,0.58045 0.57326,0.58045 h 6.90248 c 0.31628,0 0.57505,-0.26057 0.57505,-0.58045 v -6.88989 c 0,-0.31988 -0.25877,-0.58045 -0.57505,-0.58045 z m -5.04253,6.90068 h -1.19324 v -3.8421 h 1.19504 v 3.8421 z m -0.59662,-4.36684 c -0.38277,0 -0.69187,-0.31089 -0.69187,-0.69187 0,-0.38097 0.3091,-0.69186 0.69187,-0.69186 0.38097,0 0.69187,0.31089 0.69187,0.69186 0,0.38278 -0.3091,0.69187 -0.69187,0.69187 z m 5.06948,4.36684 h -1.19324 v -1.86894 c 0,-0.44566 -0.009,-1.01893 -0.61998,-1.01893 -0.62178,0 -0.71703,0.48521 -0.71703,0.98658 v 1.90129 h -1.19324 v -3.8421 h 1.14472 v 0.52474 h 0.0162 c 0.15994,-0.3019 0.5499,-0.61998 1.13035,-0.61998 1.20762,0 1.43225,0.79609 1.43225,1.83119 z"
       id="path440"
       style="fill:#0077b5;fill-opacity:1;stroke-width:0.0179706" />
    <text
       xml:space="preserve"
       style="font-size:6.35px;font-family:'Noto Sans';-inkscape-font-specification:'Noto Sans';opacity:0.8;fill:#000000;fill-opacity:1;stroke:none;stroke-width:2;stroke-linecap:round;stroke-linejoin:round;stroke-opacity:0.501961;stop-color:#000000"
       x="166.74496"
       y="382.96881"
       id="text1352"><tspan
         sodipodi:role="line"
         id="tspan1350"
         style="font-size:6.35px;stroke-width:2"
         x="166.74496"
         y="382.96881">yannik-schaelte</tspan></text>
    <path
       d="m 290.25803,383.97018 c 0,0.0359 -0.0413,0.0647 -0.0935,0.0647 -0.0593,0.005 -0.10063,-0.0233 -0.10063,-0.0647 0,-0.0359 0.0413,-0.0647 0.0935,-0.0647 0.0539,-0.005 0.10063,0.0233 0.10063,0.0647 z m -0.55888,-0.0809 c -0.0126,0.0359 0.0234,0.0773 0.0773,0.0881 0.0467,0.018 0.10063,0 0.11142,-0.0359 0.0108,-0.0359 -0.0234,-0.0773 -0.0773,-0.0934 -0.0467,-0.0126 -0.0988,0.005 -0.11141,0.0413 z m 0.79429,-0.0306 c -0.0521,0.0126 -0.0881,0.0467 -0.0827,0.0881 0.005,0.0359 0.0521,0.0593 0.10603,0.0467 0.0521,-0.0125 0.088,-0.0467 0.0827,-0.0827 -0.005,-0.0342 -0.0539,-0.0575 -0.10603,-0.0521 z m 1.18246,-6.88631 c -2.49251,0 -4.39918,1.8923 -4.39918,4.38481 0,1.99293 1.25434,3.69834 3.046,4.29855 0.23002,0.0413 0.31089,-0.10063 0.31089,-0.21745 0,-0.11141 -0.005,-0.726 -0.005,-1.10339 0,0 -1.25793,0.26956 -1.5221,-0.53552 0,0 -0.20486,-0.52294 -0.49958,-0.65772 0,0 -0.41152,-0.28213 0.0288,-0.27674 0,0 0.44747,0.0359 0.69367,0.46364 0.39355,0.69366 1.05307,0.49419 1.31005,0.37558 0.0413,-0.28753 0.15814,-0.487 0.28752,-0.60561 -1.00454,-0.11141 -2.01808,-0.25698 -2.01808,-1.98574 0,-0.49419 0.13657,-0.74218 0.4241,-1.05846 -0.0467,-0.11681 -0.19947,-0.59842 0.0467,-1.2202 0.37559,-0.11681 1.23997,0.4852 1.23997,0.4852 0.35941,-0.10063 0.74578,-0.15275 1.12855,-0.15275 0.38277,0 0.76914,0.0521 1.12855,0.15275 0,0 0.86438,-0.60381 1.23996,-0.4852 0.2462,0.62358 0.0935,1.10339 0.0467,1.2202 0.28753,0.31807 0.46364,0.56607 0.46364,1.05846 0,1.73416 -1.05847,1.87253 -2.06302,1.98574 0.16533,0.14197 0.3055,0.41153 0.3055,0.83384 0,0.6056 -0.005,1.35497 -0.005,1.50233 0,0.11681 0.0827,0.25878 0.31089,0.21744 1.79705,-0.59661 3.01546,-2.30202 3.01546,-4.29495 0,-2.49251 -2.02169,-4.38481 -4.5142,-4.38481 z m -2.65245,6.19804 c -0.0234,0.0179 -0.018,0.0593 0.0126,0.0934 0.0288,0.0288 0.0701,0.0413 0.0935,0.018 0.0234,-0.018 0.018,-0.0593 -0.0126,-0.0935 -0.0288,-0.0288 -0.0701,-0.0413 -0.0934,-0.0179 z m -0.19408,-0.14557 c -0.0126,0.0234 0.005,0.0521 0.0413,0.0701 0.0288,0.018 0.0647,0.0126 0.0773,-0.0126 0.0126,-0.0234 -0.005,-0.0521 -0.0413,-0.0701 -0.0359,-0.0108 -0.0647,-0.005 -0.0773,0.0126 z m 0.58225,0.63976 c -0.0288,0.0233 -0.018,0.0773 0.0233,0.11141 0.0413,0.0413 0.0934,0.0467 0.11681,0.018 0.0233,-0.0233 0.0126,-0.0773 -0.0233,-0.11142 -0.0395,-0.0413 -0.0935,-0.0467 -0.11681,-0.018 z m -0.20487,-0.26417 c -0.0288,0.018 -0.0288,0.0647 0,0.10603 0.0288,0.0413 0.0773,0.0593 0.10064,0.0413 0.0288,-0.0234 0.0288,-0.0701 0,-0.11142 -0.0252,-0.0413 -0.0719,-0.0593 -0.10064,-0.0359 z"
       id="path422"
       style="fill:#606060;fill-opacity:1;stroke-width:0.0179706" />
    <text
       xml:space="preserve"
       style="font-size:6.35px;font-family:'Noto Sans';-inkscape-font-specification:'Noto Sans';opacity:0.8;fill:#000000;fill-opacity:1;stroke:none;stroke-width:2;stroke-linecap:round;stroke-linejoin:round;stroke-opacity:0.501961;stop-color:#000000"
       x="298.38052"
       y="382.96881"
       id="text1356"><tspan
         sodipodi:role="line"
         id="tspan1354"
         style="font-size:6.35px;stroke-width:2"
         x="298.38052"
         y="382.96881">yannikschaelte</tspan></text>
  </g>
</svg>
